<svg width="167" height="50" viewBox="0 0 167 50" fill="none" xmlns="http://www.w3.org/2000/svg">
<path d="M12.8255 13.8544V9.99846C12.8255 4.49217 18.2546 0 24.9985 0C31.7423 0 37.1715 4.49217 37.1715 9.99846V13.8544H45.5855C45.9709 13.8546 46.342 13.9705 46.6239 14.1787C46.9058 14.3869 47.0776 14.672 47.1046 14.9765L49.997 48.716C50.0224 49.0347 49.8877 49.3485 49.6223 49.589C49.357 49.8295 48.9823 49.9772 48.58 50H1.51919C1.11628 50 0.729864 49.8732 0.44496 49.6476C0.160057 49.422 0 49.116 0 48.797V48.716L2.8923 14.9765C2.91822 14.6713 3.0895 14.3853 3.37151 14.1763C3.65353 13.9673 4.02524 13.8508 4.4115 13.8505L12.8255 13.8544ZM17.3928 13.8544H32.609V9.99846C32.609 6.45485 29.2006 3.61302 24.9985 3.61302C20.7964 3.61302 17.3928 6.45485 17.3928 9.99846V13.8544ZM4.77669 46.3908H45.2203L42.7467 17.4713H7.25511L4.77669 46.3908Z" fill="#3B82F6"/>
<path d="M22.2 36.2C21.4265 36.2 20.807 36.8265 20.807 37.6C20.807 38.3735 21.4265 39 22.2 39C22.9735 39 23.6 38.3735 23.6 37.6C23.6 36.8265 22.9735 36.2 22.2 36.2ZM18 25V26.4H19.4L21.9165 31.7095L20.9715 33.4245C20.863 33.6275 20.8 33.855 20.8 34.1C20.8 34.8735 21.4265 35.5 22.2 35.5H30.6V34.1H22.4975C22.3995 34.1 22.3225 34.023 22.3225 33.925C22.3225 33.8935 22.3295 33.8655 22.3435 33.841L22.97 32.7H28.185C28.71 32.7 29.1685 32.4095 29.41 31.979L31.9125 27.436C31.9685 27.338 32 27.2225 32 27.1C32 26.9143 31.9263 26.7363 31.795 26.605C31.6637 26.4737 31.4857 26.4 31.3 26.4H20.9505L20.2855 25H18ZM29.2 36.2C28.4265 36.2 27.807 36.8265 27.807 37.6C27.807 38.3735 28.4265 39 29.2 39C29.9735 39 30.6 38.3735 30.6 37.6C30.6 36.8265 29.9735 36.2 29.2 36.2Z" fill="white"/>
<path d="M63.1051 25.9318H66.2415L67.8182 27.9602L69.3693 29.767L72.2926 33.4318H68.8494L66.8381 30.9602L65.8068 29.4943L63.1051 25.9318ZM72.5568 23.2727C72.5568 25.1761 72.196 26.7955 71.4744 28.1307C70.7585 29.4659 69.7813 30.4858 68.5426 31.1903C67.3097 31.8892 65.9233 32.2386 64.3835 32.2386C62.8324 32.2386 61.4403 31.8864 60.2074 31.1818C58.9744 30.4773 58 29.4574 57.2841 28.1222C56.5682 26.7869 56.2102 25.1705 56.2102 23.2727C56.2102 21.3693 56.5682 19.75 57.2841 18.4148C58 17.0795 58.9744 16.0625 60.2074 15.3636C61.4403 14.6591 62.8324 14.3068 64.3835 14.3068C65.9233 14.3068 67.3097 14.6591 68.5426 15.3636C69.7813 16.0625 70.7585 17.0795 71.4744 18.4148C72.196 19.75 72.5568 21.3693 72.5568 23.2727ZM68.8153 23.2727C68.8153 22.0398 68.6307 21 68.2614 20.1534C67.8977 19.3068 67.3835 18.6648 66.7188 18.2273C66.054 17.7898 65.2756 17.571 64.3835 17.571C63.4915 17.571 62.7131 17.7898 62.0483 18.2273C61.3835 18.6648 60.8665 19.3068 60.4972 20.1534C60.1335 21 59.9517 22.0398 59.9517 23.2727C59.9517 24.5057 60.1335 25.5455 60.4972 26.392C60.8665 27.2386 61.3835 27.8807 62.0483 28.3182C62.7131 28.7557 63.4915 28.9744 64.3835 28.9744C65.2756 28.9744 66.054 28.7557 66.7188 28.3182C67.3835 27.8807 67.8977 27.2386 68.2614 26.392C68.6307 25.5455 68.8153 24.5057 68.8153 23.2727ZM83.6172 26.4261V18.9091H87.2479V32H83.7621V29.6222H83.6257C83.3303 30.3892 82.8388 31.0057 82.1513 31.4716C81.4695 31.9375 80.6371 32.1705 79.6541 32.1705C78.7791 32.1705 78.0092 31.9716 77.3445 31.5739C76.6797 31.1761 76.1598 30.6108 75.7848 29.8778C75.4155 29.1449 75.228 28.267 75.2223 27.2443V18.9091H78.853V26.5966C78.8587 27.3693 79.0661 27.9801 79.4751 28.429C79.8842 28.8778 80.4325 29.1023 81.12 29.1023C81.5575 29.1023 81.9666 29.0028 82.3473 28.804C82.728 28.5994 83.0348 28.2983 83.2678 27.9006C83.5064 27.5028 83.6229 27.0114 83.6172 26.4261ZM93.8849 32.2472C93.0497 32.2472 92.3054 32.1023 91.652 31.8125C90.9986 31.517 90.4815 31.0824 90.1009 30.5085C89.7259 29.929 89.5384 29.2074 89.5384 28.3438C89.5384 27.6165 89.6719 27.0057 89.9389 26.5114C90.206 26.017 90.5696 25.6193 91.0298 25.3182C91.4901 25.017 92.0128 24.7898 92.598 24.6364C93.1889 24.483 93.8082 24.375 94.456 24.3125C95.2173 24.233 95.831 24.1591 96.2969 24.0909C96.7628 24.017 97.1009 23.9091 97.3111 23.767C97.5213 23.625 97.6264 23.4148 97.6264 23.1364V23.0852C97.6264 22.5455 97.456 22.1278 97.1151 21.8324C96.7798 21.5369 96.3026 21.3892 95.6832 21.3892C95.0298 21.3892 94.5099 21.5341 94.1236 21.8239C93.7372 22.108 93.4815 22.4659 93.3565 22.8977L89.9986 22.625C90.169 21.8295 90.5043 21.142 91.0043 20.5625C91.5043 19.9773 92.1491 19.5284 92.9389 19.2159C93.7344 18.8977 94.6548 18.7386 95.7003 18.7386C96.4276 18.7386 97.1236 18.8239 97.7884 18.9943C98.4588 19.1648 99.0526 19.429 99.5696 19.7869C100.092 20.1449 100.504 20.6051 100.805 21.1676C101.107 21.7244 101.257 22.392 101.257 23.1705V32H97.8139V30.1847H97.7116C97.5014 30.5938 97.2202 30.9545 96.8679 31.267C96.5156 31.5739 96.0923 31.8153 95.598 31.9915C95.1037 32.1619 94.5327 32.2472 93.8849 32.2472ZM94.9247 29.7415C95.4588 29.7415 95.9304 29.6364 96.3395 29.4261C96.7486 29.2102 97.0696 28.9205 97.3026 28.5568C97.5355 28.1932 97.652 27.7812 97.652 27.321V25.9318C97.5384 26.0057 97.3821 26.0739 97.1832 26.1364C96.9901 26.1932 96.7713 26.2472 96.527 26.2983C96.2827 26.3437 96.0384 26.3864 95.794 26.4261C95.5497 26.4602 95.3281 26.4915 95.1293 26.5199C94.7031 26.5824 94.331 26.6818 94.0128 26.8182C93.6946 26.9545 93.4474 27.1392 93.2713 27.3722C93.0952 27.5994 93.0071 27.8835 93.0071 28.2244C93.0071 28.7188 93.1861 29.0966 93.544 29.358C93.9077 29.6136 94.3679 29.7415 94.9247 29.7415ZM107.705 24.4318V32H104.074V18.9091H107.534V21.2188H107.688C107.977 20.4574 108.463 19.8551 109.145 19.4119C109.827 18.9631 110.653 18.7386 111.625 18.7386C112.534 18.7386 113.327 18.9375 114.003 19.3352C114.679 19.733 115.205 20.3011 115.58 21.0398C115.955 21.7727 116.142 22.6477 116.142 23.6648V32H112.511V24.3125C112.517 23.5114 112.313 22.8864 111.898 22.4375C111.483 21.983 110.912 21.7557 110.185 21.7557C109.696 21.7557 109.264 21.8608 108.889 22.071C108.52 22.2812 108.23 22.5881 108.02 22.9915C107.815 23.3892 107.71 23.8693 107.705 24.4318ZM125.967 18.9091V21.6364H118.083V18.9091H125.967ZM119.873 15.7727H123.504V27.9773C123.504 28.3125 123.555 28.5739 123.657 28.7614C123.759 28.9432 123.901 29.071 124.083 29.1449C124.271 29.2187 124.487 29.2557 124.731 29.2557C124.901 29.2557 125.072 29.2415 125.242 29.2131C125.413 29.179 125.543 29.1534 125.634 29.1364L126.205 31.8381C126.023 31.8949 125.768 31.9602 125.438 32.0341C125.109 32.1136 124.708 32.1619 124.237 32.179C123.362 32.2131 122.594 32.0966 121.935 31.8295C121.282 31.5625 120.773 31.1477 120.41 30.5852C120.046 30.0227 119.867 29.3125 119.873 28.4545V15.7727ZM136.727 26.4261V18.9091H140.357V32H136.871V29.6222H136.735C136.44 30.3892 135.948 31.0057 135.261 31.4716C134.579 31.9375 133.746 32.1705 132.763 32.1705C131.888 32.1705 131.119 31.9716 130.454 31.5739C129.789 31.1761 129.269 30.6108 128.894 29.8778C128.525 29.1449 128.337 28.267 128.332 27.2443V18.9091H131.962V26.5966C131.968 27.3693 132.175 27.9801 132.585 28.429C132.994 28.8778 133.542 29.1023 134.229 29.1023C134.667 29.1023 135.076 29.0028 135.457 28.804C135.837 28.5994 136.144 28.2983 136.377 27.9006C136.616 27.5028 136.732 27.0114 136.727 26.4261ZM143.261 32V18.9091H146.722V21.2188H146.875C147.148 20.4517 147.602 19.8466 148.239 19.4034C148.875 18.9602 149.636 18.7386 150.523 18.7386C151.42 18.7386 152.185 18.9631 152.815 19.4119C153.446 19.8551 153.866 20.4574 154.077 21.2188H154.213C154.48 20.4688 154.963 19.8693 155.662 19.4205C156.366 18.9659 157.199 18.7386 158.159 18.7386C159.381 18.7386 160.372 19.1278 161.134 19.9062C161.901 20.679 162.284 21.7756 162.284 23.196V32H158.662V23.9119C158.662 23.1847 158.469 22.6392 158.082 22.2756C157.696 21.9119 157.213 21.7301 156.634 21.7301C155.974 21.7301 155.46 21.9403 155.091 22.3608C154.722 22.7756 154.537 23.3239 154.537 24.0057V32H151.017V23.8352C151.017 23.1932 150.832 22.6818 150.463 22.3011C150.099 21.9205 149.619 21.7301 149.023 21.7301C148.619 21.7301 148.256 21.8324 147.932 22.0369C147.614 22.2358 147.361 22.517 147.173 22.8807C146.986 23.2386 146.892 23.6591 146.892 24.142V32H143.261Z" fill="#3B82F6"/>
<path d="M86.7074 39.0597C86.6364 38.8295 86.5384 38.6236 86.4134 38.4418C86.2912 38.2571 86.1435 38.0994 85.9702 37.9688C85.7997 37.8381 85.6037 37.7401 85.3821 37.6747C85.1605 37.6065 84.919 37.5724 84.6577 37.5724C84.1889 37.5724 83.7713 37.6903 83.4048 37.9261C83.0384 38.1619 82.75 38.5085 82.5398 38.9659C82.3324 39.4205 82.2287 39.9744 82.2287 40.6278C82.2287 41.2869 82.3324 41.8452 82.5398 42.3026C82.7472 42.7599 83.0355 43.108 83.4048 43.3466C83.7741 43.5824 84.2031 43.7003 84.6918 43.7003C85.1349 43.7003 85.5185 43.6151 85.8423 43.4446C86.169 43.2741 86.4205 43.0327 86.5966 42.7202C86.7727 42.4048 86.8608 42.0355 86.8608 41.6122L87.2188 41.6676H84.8494V40.4318H88.3906V41.4801C88.3906 42.2273 88.2315 42.8736 87.9134 43.419C87.5952 43.9645 87.1577 44.3849 86.6009 44.6804C86.044 44.973 85.4048 45.1193 84.6832 45.1193C83.8793 45.1193 83.1733 44.9389 82.5653 44.5781C81.9602 44.2145 81.4872 43.6989 81.1463 43.0312C80.8082 42.3608 80.6392 41.5653 80.6392 40.6449C80.6392 39.9403 80.7386 39.3111 80.9375 38.7571C81.1392 38.2031 81.4205 37.733 81.7812 37.3466C82.142 36.9574 82.5653 36.6619 83.0511 36.4602C83.5369 36.2557 84.0653 36.1534 84.6364 36.1534C85.1193 36.1534 85.5696 36.2244 85.9872 36.3665C86.4048 36.5057 86.7756 36.7045 87.0994 36.9631C87.4261 37.2216 87.6946 37.5284 87.9048 37.8835C88.1151 38.2386 88.2528 38.6307 88.3182 39.0597H86.7074ZM90.7706 45H89.0831L92.1555 36.2727H94.1072L97.1839 45H95.4964L93.1655 38.0625H93.0973L90.7706 45ZM90.826 41.5781H95.4283V42.848H90.826V41.5781ZM101.291 45H98.3335V36.2727H101.35C102.217 36.2727 102.961 36.4474 103.583 36.7969C104.208 37.1435 104.689 37.642 105.024 38.2926C105.359 38.9432 105.527 39.7216 105.527 40.6278C105.527 41.5369 105.358 42.3182 105.02 42.9716C104.684 43.625 104.2 44.1264 103.566 44.4759C102.936 44.8253 102.177 45 101.291 45ZM99.9144 43.6321H101.214C101.822 43.6321 102.329 43.5213 102.735 43.2997C103.142 43.0753 103.447 42.7415 103.652 42.2983C103.856 41.8523 103.958 41.2955 103.958 40.6278C103.958 39.9602 103.856 39.4062 103.652 38.9659C103.447 38.5227 103.145 38.1918 102.744 37.973C102.346 37.7514 101.852 37.6406 101.261 37.6406H99.9144V43.6321ZM112.875 39.0597C112.804 38.8295 112.706 38.6236 112.581 38.4418C112.459 38.2571 112.311 38.0994 112.138 37.9688C111.968 37.8381 111.772 37.7401 111.55 37.6747C111.328 37.6065 111.087 37.5724 110.826 37.5724C110.357 37.5724 109.939 37.6903 109.573 37.9261C109.206 38.1619 108.918 38.5085 108.708 38.9659C108.5 39.4205 108.397 39.9744 108.397 40.6278C108.397 41.2869 108.5 41.8452 108.708 42.3026C108.915 42.7599 109.203 43.108 109.573 43.3466C109.942 43.5824 110.371 43.7003 110.86 43.7003C111.303 43.7003 111.686 43.6151 112.01 43.4446C112.337 43.2741 112.588 43.0327 112.765 42.7202C112.941 42.4048 113.029 42.0355 113.029 41.6122L113.387 41.6676H111.017V40.4318H114.559V41.4801C114.559 42.2273 114.4 42.8736 114.081 43.419C113.763 43.9645 113.326 44.3849 112.769 44.6804C112.212 44.973 111.573 45.1193 110.851 45.1193C110.047 45.1193 109.341 44.9389 108.733 44.5781C108.128 44.2145 107.655 43.6989 107.314 43.0312C106.976 42.3608 106.807 41.5653 106.807 40.6449C106.807 39.9403 106.907 39.3111 107.105 38.7571C107.307 38.2031 107.588 37.733 107.949 37.3466C108.31 36.9574 108.733 36.6619 109.219 36.4602C109.705 36.2557 110.233 36.1534 110.804 36.1534C111.287 36.1534 111.738 36.2244 112.155 36.3665C112.573 36.5057 112.944 36.7045 113.267 36.9631C113.594 37.2216 113.863 37.5284 114.073 37.8835C114.283 38.2386 114.421 38.6307 114.486 39.0597H112.875ZM116.087 45V36.2727H121.763V37.598H117.668V39.9673H121.469V41.2926H117.668V43.6747H121.798V45H116.087ZM122.993 37.598V36.2727H129.956V37.598H127.259V45H125.69V37.598H122.993ZM136.041 38.6719C136.001 38.2997 135.834 38.0099 135.538 37.8026C135.246 37.5952 134.865 37.4915 134.396 37.4915C134.067 37.4915 133.784 37.5412 133.548 37.6406C133.313 37.7401 133.132 37.875 133.007 38.0455C132.882 38.2159 132.818 38.4105 132.815 38.6293C132.815 38.8111 132.857 38.9687 132.939 39.1023C133.024 39.2358 133.139 39.3494 133.284 39.4432C133.429 39.5341 133.589 39.6108 133.766 39.6733C133.942 39.7358 134.119 39.7884 134.298 39.831L135.116 40.0355C135.446 40.1122 135.763 40.2159 136.067 40.3466C136.374 40.4773 136.648 40.642 136.889 40.8409C137.134 41.0398 137.327 41.2798 137.469 41.5611C137.611 41.8423 137.682 42.1719 137.682 42.5497C137.682 43.0611 137.551 43.5114 137.29 43.9006C137.028 44.2869 136.651 44.5895 136.156 44.8082C135.665 45.0241 135.07 45.1321 134.371 45.1321C133.692 45.1321 133.102 45.027 132.602 44.8168C132.105 44.6065 131.716 44.2997 131.435 43.8963C131.156 43.4929 131.006 43.0014 130.983 42.4219H132.538C132.561 42.7259 132.655 42.9787 132.82 43.1804C132.984 43.3821 133.199 43.5327 133.463 43.6321C133.73 43.7315 134.028 43.7812 134.358 43.7812C134.702 43.7812 135.003 43.7301 135.261 43.6278C135.523 43.5227 135.727 43.3778 135.875 43.1932C136.023 43.0057 136.098 42.7869 136.101 42.5369C136.098 42.3097 136.031 42.1222 135.901 41.9744C135.77 41.8239 135.587 41.6989 135.351 41.5994C135.118 41.4972 134.845 41.4062 134.533 41.3267L133.54 41.071C132.821 40.8864 132.253 40.6065 131.835 40.2315C131.42 39.8537 131.213 39.3523 131.213 38.7273C131.213 38.2131 131.352 37.7628 131.631 37.3764C131.912 36.9901 132.294 36.6903 132.777 36.4773C133.26 36.2614 133.807 36.1534 134.418 36.1534C135.037 36.1534 135.58 36.2614 136.045 36.4773C136.514 36.6903 136.882 36.9872 137.149 37.3679C137.416 37.7457 137.554 38.1804 137.562 38.6719H136.041Z" fill="white"/>
</svg>
